<mxfile host="app.diagrams.net" modified="2021-03-01T10:36:44.242Z" agent="5.0 (Windows)" etag="42E-0rjTSJ2swekhZe-K" version="14.4.3" type="github" pages="2">
  <diagram id="Zn9thq2A35_GBZbb37ch" name="Page-1">
    <mxGraphModel dx="1438" dy="547" grid="0" gridSize="10" guides="1" tooltips="1" connect="1" arrows="1" fold="1" page="0" pageScale="1" pageWidth="850" pageHeight="1100" math="0" shadow="0">
      <root>
        <mxCell id="0" />
        <mxCell id="1" parent="0" />
        <mxCell id="SrspeErMbeNirU3ql6It-4" style="edgeStyle=orthogonalEdgeStyle;rounded=0;orthogonalLoop=1;jettySize=auto;html=1;exitX=0.5;exitY=1;exitDx=0;exitDy=0;entryX=0.5;entryY=0;entryDx=0;entryDy=0;" parent="1" source="SrspeErMbeNirU3ql6It-2" target="SrspeErMbeNirU3ql6It-3" edge="1">
          <mxGeometry relative="1" as="geometry" />
        </mxCell>
        <mxCell id="SrspeErMbeNirU3ql6It-2" value="post: baseurl + &#39;/v1/backup-manager/DEFAULT/action&#39;" style="text;html=1;strokeColor=none;fillColor=none;align=center;verticalAlign=middle;whiteSpace=wrap;rounded=0;" parent="1" vertex="1">
          <mxGeometry x="165" y="139" width="349" height="36" as="geometry" />
        </mxCell>
        <mxCell id="SrspeErMbeNirU3ql6It-6" value="" style="edgeStyle=orthogonalEdgeStyle;rounded=0;orthogonalLoop=1;jettySize=auto;html=1;" parent="1" source="SrspeErMbeNirU3ql6It-3" target="SrspeErMbeNirU3ql6It-5" edge="1">
          <mxGeometry relative="1" as="geometry" />
        </mxCell>
        <mxCell id="SrspeErMbeNirU3ql6It-3" value="&lt;div&gt;rest.ActionController&lt;/div&gt;&lt;div&gt;CreateActionResponse()&lt;br&gt;&lt;/div&gt;" style="rounded=0;whiteSpace=wrap;html=1;" parent="1" vertex="1">
          <mxGeometry x="198.5" y="197" width="282" height="52" as="geometry" />
        </mxCell>
        <mxCell id="SrspeErMbeNirU3ql6It-8" value="" style="edgeStyle=orthogonalEdgeStyle;rounded=0;orthogonalLoop=1;jettySize=auto;html=1;" parent="1" source="SrspeErMbeNirU3ql6It-5" edge="1">
          <mxGeometry relative="1" as="geometry">
            <mxPoint x="340" y="368" as="targetPoint" />
          </mxGeometry>
        </mxCell>
        <mxCell id="SrspeErMbeNirU3ql6It-5" value="&lt;div&gt;ActionService&lt;br&gt;&lt;/div&gt;&lt;div&gt;handelActionRequest()&lt;br&gt;&lt;/div&gt;" style="rounded=0;whiteSpace=wrap;html=1;" parent="1" vertex="1">
          <mxGeometry x="198.5" y="267" width="282" height="52" as="geometry" />
        </mxCell>
        <mxCell id="SrspeErMbeNirU3ql6It-10" value="" style="edgeStyle=orthogonalEdgeStyle;rounded=0;orthogonalLoop=1;jettySize=auto;html=1;" parent="1" source="SrspeErMbeNirU3ql6It-7" target="SrspeErMbeNirU3ql6It-9" edge="1">
          <mxGeometry relative="1" as="geometry" />
        </mxCell>
        <mxCell id="SrspeErMbeNirU3ql6It-7" value="&lt;div&gt;&lt;br&gt;&lt;/div&gt;&lt;div&gt;&lt;br&gt;&lt;/div&gt;&lt;div&gt;JobExecutor&lt;br&gt;&lt;/div&gt;&lt;div&gt;execute()&lt;br&gt;&lt;/div&gt;" style="rounded=0;whiteSpace=wrap;html=1;" parent="1" vertex="1">
          <mxGeometry x="198.5" y="348" width="282" height="77" as="geometry" />
        </mxCell>
        <mxCell id="SrspeErMbeNirU3ql6It-12" value="" style="edgeStyle=orthogonalEdgeStyle;rounded=0;orthogonalLoop=1;jettySize=auto;html=1;" parent="1" source="SrspeErMbeNirU3ql6It-9" target="SrspeErMbeNirU3ql6It-11" edge="1">
          <mxGeometry relative="1" as="geometry" />
        </mxCell>
        <mxCell id="SrspeErMbeNirU3ql6It-21" value="" style="edgeStyle=orthogonalEdgeStyle;rounded=0;orthogonalLoop=1;jettySize=auto;html=1;" parent="1" source="SrspeErMbeNirU3ql6It-9" target="SrspeErMbeNirU3ql6It-20" edge="1">
          <mxGeometry relative="1" as="geometry" />
        </mxCell>
        <mxCell id="SrspeErMbeNirU3ql6It-9" value="&lt;div&gt;job.QueueingJobExecutor&lt;br&gt;&lt;/div&gt;&lt;div&gt;queueAction()&lt;br&gt;&lt;/div&gt;&lt;div&gt;persistAcceptedAction()&lt;/div&gt;" style="rounded=0;whiteSpace=wrap;html=1;" parent="1" vertex="1">
          <mxGeometry x="198.5" y="457" width="282" height="52" as="geometry" />
        </mxCell>
        <mxCell id="SrspeErMbeNirU3ql6It-15" value="" style="edgeStyle=orthogonalEdgeStyle;rounded=0;orthogonalLoop=1;jettySize=auto;html=1;" parent="1" source="SrspeErMbeNirU3ql6It-11" target="SrspeErMbeNirU3ql6It-14" edge="1">
          <mxGeometry relative="1" as="geometry" />
        </mxCell>
        <mxCell id="SrspeErMbeNirU3ql6It-11" value="&lt;div&gt;&amp;nbsp;Action&lt;br&gt;&lt;/div&gt;&lt;div&gt;&amp;nbsp;persist()&lt;br&gt;&lt;/div&gt;" style="rounded=0;whiteSpace=wrap;html=1;" parent="1" vertex="1">
          <mxGeometry x="198.5" y="580" width="282" height="52" as="geometry" />
        </mxCell>
        <mxCell id="SrspeErMbeNirU3ql6It-13" value="&lt;div&gt;BackupManager&lt;/div&gt;&lt;div&gt;addAction&lt;br&gt;&lt;/div&gt;" style="rounded=0;whiteSpace=wrap;html=1;" parent="1" vertex="1">
          <mxGeometry x="279.5" y="545" width="120" height="40" as="geometry" />
        </mxCell>
        <mxCell id="SrspeErMbeNirU3ql6It-14" value="Consumer&lt;br&gt;&lt;div&gt;persistFunction.accept()&lt;/div&gt;" style="rounded=0;whiteSpace=wrap;html=1;" parent="1" vertex="1">
          <mxGeometry x="198.5" y="661" width="282" height="52" as="geometry" />
        </mxCell>
        <mxCell id="SrspeErMbeNirU3ql6It-16" value="&lt;div&gt;ActionRepository&lt;/div&gt;&lt;div&gt;createAction()&lt;br&gt;&lt;/div&gt;" style="rounded=0;whiteSpace=wrap;html=1;" parent="1" vertex="1">
          <mxGeometry x="279.5" y="335" width="120" height="47" as="geometry" />
        </mxCell>
        <mxCell id="SrspeErMbeNirU3ql6It-23" value="" style="edgeStyle=orthogonalEdgeStyle;rounded=0;orthogonalLoop=1;jettySize=auto;html=1;" parent="1" source="SrspeErMbeNirU3ql6It-20" target="SrspeErMbeNirU3ql6It-22" edge="1">
          <mxGeometry relative="1" as="geometry" />
        </mxCell>
        <mxCell id="SrspeErMbeNirU3ql6It-20" value="&lt;div&gt;job.QueueingJobExecutor(new Thread)&lt;br&gt;&lt;/div&gt;&lt;div&gt;&amp;nbsp;executeLoop()&lt;br&gt;&lt;/div&gt;" style="rounded=0;whiteSpace=wrap;html=1;" parent="1" vertex="1">
          <mxGeometry x="-125" y="457" width="282" height="52" as="geometry" />
        </mxCell>
        <mxCell id="SrspeErMbeNirU3ql6It-22" value="&lt;div&gt;JobFactory.createJob()&lt;/div&gt;&lt;div&gt;Job.run()&lt;br&gt;&lt;/div&gt;&lt;div&gt;Job.runJob()&lt;/div&gt;&lt;div&gt;Job.triggerJob()&lt;br&gt;&lt;/div&gt;&lt;div&gt;Job.completeJob()&lt;br&gt;&lt;/div&gt;" style="rounded=0;whiteSpace=wrap;html=1;" parent="1" vertex="1">
          <mxGeometry x="-125" y="548" width="282" height="93" as="geometry" />
        </mxCell>
      </root>
    </mxGraphModel>
  </diagram>
  <diagram id="-uBS8yWjZrAhtoz5IRYW" name="Page-2">
    <mxGraphModel dx="2388" dy="489" grid="0" gridSize="10" guides="1" tooltips="1" connect="1" arrows="1" fold="1" page="0" pageScale="1" pageWidth="850" pageHeight="1100" math="0" shadow="0">
      <root>
        <mxCell id="C3laU1NXzG-Y4HvoAmFW-0" />
        <mxCell id="C3laU1NXzG-Y4HvoAmFW-1" parent="C3laU1NXzG-Y4HvoAmFW-0" />
        <mxCell id="EDEPv6k74kUYAO_By8vL-0" style="edgeStyle=orthogonalEdgeStyle;rounded=0;orthogonalLoop=1;jettySize=auto;html=1;exitX=0.5;exitY=1;exitDx=0;exitDy=0;entryX=0.5;entryY=0;entryDx=0;entryDy=0;" edge="1" parent="C3laU1NXzG-Y4HvoAmFW-1" source="EDEPv6k74kUYAO_By8vL-1" target="EDEPv6k74kUYAO_By8vL-3">
          <mxGeometry relative="1" as="geometry" />
        </mxCell>
        <mxCell id="EDEPv6k74kUYAO_By8vL-1" value="post: baseurl + &#39;/v1/backup-manager/DEFAULT/action&#39;" style="text;html=1;strokeColor=none;fillColor=none;align=center;verticalAlign=middle;whiteSpace=wrap;rounded=0;" vertex="1" parent="C3laU1NXzG-Y4HvoAmFW-1">
          <mxGeometry x="165" y="139" width="349" height="36" as="geometry" />
        </mxCell>
        <mxCell id="EDEPv6k74kUYAO_By8vL-2" value="" style="edgeStyle=orthogonalEdgeStyle;rounded=0;orthogonalLoop=1;jettySize=auto;html=1;" edge="1" parent="C3laU1NXzG-Y4HvoAmFW-1" source="EDEPv6k74kUYAO_By8vL-3" target="EDEPv6k74kUYAO_By8vL-5">
          <mxGeometry relative="1" as="geometry" />
        </mxCell>
        <mxCell id="EDEPv6k74kUYAO_By8vL-3" value="&lt;div&gt;rest.ActionController&lt;/div&gt;&lt;div&gt;CreateActionResponse()&lt;br&gt;&lt;/div&gt;" style="rounded=0;whiteSpace=wrap;html=1;" vertex="1" parent="C3laU1NXzG-Y4HvoAmFW-1">
          <mxGeometry x="198.5" y="197" width="282" height="52" as="geometry" />
        </mxCell>
        <mxCell id="EDEPv6k74kUYAO_By8vL-4" value="" style="edgeStyle=orthogonalEdgeStyle;rounded=0;orthogonalLoop=1;jettySize=auto;html=1;" edge="1" parent="C3laU1NXzG-Y4HvoAmFW-1" source="EDEPv6k74kUYAO_By8vL-5">
          <mxGeometry relative="1" as="geometry">
            <mxPoint x="340" y="368" as="targetPoint" />
          </mxGeometry>
        </mxCell>
        <mxCell id="EDEPv6k74kUYAO_By8vL-5" value="&lt;div&gt;action.ActionService&lt;br&gt;&lt;/div&gt;&lt;div&gt;handelActionRequest()&lt;br&gt;&lt;/div&gt;" style="rounded=0;whiteSpace=wrap;html=1;" vertex="1" parent="C3laU1NXzG-Y4HvoAmFW-1">
          <mxGeometry x="198.5" y="267" width="282" height="52" as="geometry" />
        </mxCell>
        <mxCell id="EDEPv6k74kUYAO_By8vL-6" value="" style="edgeStyle=orthogonalEdgeStyle;rounded=0;orthogonalLoop=1;jettySize=auto;html=1;" edge="1" parent="C3laU1NXzG-Y4HvoAmFW-1" source="EDEPv6k74kUYAO_By8vL-7" target="EDEPv6k74kUYAO_By8vL-10">
          <mxGeometry relative="1" as="geometry" />
        </mxCell>
        <mxCell id="EDEPv6k74kUYAO_By8vL-7" value="job.JobExecutor&lt;br&gt;&lt;div&gt;execute(backupM, action)&lt;br&gt;&lt;/div&gt;" style="rounded=0;whiteSpace=wrap;html=1;" vertex="1" parent="C3laU1NXzG-Y4HvoAmFW-1">
          <mxGeometry x="198.5" y="390" width="282" height="44" as="geometry" />
        </mxCell>
        <mxCell id="EDEPv6k74kUYAO_By8vL-8" value="" style="edgeStyle=orthogonalEdgeStyle;rounded=0;orthogonalLoop=1;jettySize=auto;html=1;" edge="1" parent="C3laU1NXzG-Y4HvoAmFW-1" source="EDEPv6k74kUYAO_By8vL-10" target="EDEPv6k74kUYAO_By8vL-12">
          <mxGeometry relative="1" as="geometry" />
        </mxCell>
        <mxCell id="EDEPv6k74kUYAO_By8vL-9" value="" style="edgeStyle=orthogonalEdgeStyle;rounded=0;orthogonalLoop=1;jettySize=auto;html=1;" edge="1" parent="C3laU1NXzG-Y4HvoAmFW-1" source="EDEPv6k74kUYAO_By8vL-10" target="EDEPv6k74kUYAO_By8vL-17">
          <mxGeometry relative="1" as="geometry" />
        </mxCell>
        <mxCell id="EDEPv6k74kUYAO_By8vL-10" value="&lt;div&gt;job.QueueingJobExecutor&lt;br&gt;&lt;/div&gt;&lt;div&gt;queueAction(backupM, action)&lt;/div&gt;&lt;div&gt;pendingActions.add(queuedAction)&lt;br&gt;&lt;/div&gt;&lt;div&gt;persistAcceptedAction()&lt;/div&gt;" style="rounded=0;whiteSpace=wrap;html=1;" vertex="1" parent="C3laU1NXzG-Y4HvoAmFW-1">
          <mxGeometry x="198.5" y="457" width="282" height="71" as="geometry" />
        </mxCell>
        <mxCell id="EDEPv6k74kUYAO_By8vL-11" value="" style="edgeStyle=orthogonalEdgeStyle;rounded=0;orthogonalLoop=1;jettySize=auto;html=1;" edge="1" parent="C3laU1NXzG-Y4HvoAmFW-1" source="EDEPv6k74kUYAO_By8vL-12" target="EDEPv6k74kUYAO_By8vL-14">
          <mxGeometry relative="1" as="geometry" />
        </mxCell>
        <mxCell id="EDEPv6k74kUYAO_By8vL-12" value="&lt;div&gt;&amp;nbsp;Action&lt;br&gt;&lt;/div&gt;&lt;div&gt;&amp;nbsp;persist()&lt;br&gt;&lt;/div&gt;" style="rounded=0;whiteSpace=wrap;html=1;" vertex="1" parent="C3laU1NXzG-Y4HvoAmFW-1">
          <mxGeometry x="198.5" y="580" width="282" height="52" as="geometry" />
        </mxCell>
        <mxCell id="EDEPv6k74kUYAO_By8vL-13" value="&lt;div&gt;BackupManager&lt;/div&gt;&lt;div&gt;addAction&lt;br&gt;&lt;/div&gt;" style="rounded=0;whiteSpace=wrap;html=1;" vertex="1" parent="C3laU1NXzG-Y4HvoAmFW-1">
          <mxGeometry x="279.5" y="545" width="120" height="40" as="geometry" />
        </mxCell>
        <mxCell id="EDEPv6k74kUYAO_By8vL-14" value="Consumer&lt;br&gt;&lt;div&gt;persistFunction.accept()&lt;/div&gt;" style="rounded=0;whiteSpace=wrap;html=1;" vertex="1" parent="C3laU1NXzG-Y4HvoAmFW-1">
          <mxGeometry x="198.5" y="661" width="282" height="52" as="geometry" />
        </mxCell>
        <mxCell id="EDEPv6k74kUYAO_By8vL-20" value="" style="edgeStyle=orthogonalEdgeStyle;rounded=0;orthogonalLoop=1;jettySize=auto;html=1;" edge="1" parent="C3laU1NXzG-Y4HvoAmFW-1" source="EDEPv6k74kUYAO_By8vL-15" target="EDEPv6k74kUYAO_By8vL-19">
          <mxGeometry relative="1" as="geometry" />
        </mxCell>
        <mxCell id="EDEPv6k74kUYAO_By8vL-15" value="&lt;div&gt;ActionRepository&lt;/div&gt;&lt;div&gt;createAction()&lt;br&gt;&lt;/div&gt;" style="rounded=0;whiteSpace=wrap;html=1;" vertex="1" parent="C3laU1NXzG-Y4HvoAmFW-1">
          <mxGeometry x="198.5" y="343" width="281.5" height="47" as="geometry" />
        </mxCell>
        <mxCell id="EDEPv6k74kUYAO_By8vL-16" value="" style="edgeStyle=orthogonalEdgeStyle;rounded=0;orthogonalLoop=1;jettySize=auto;html=1;" edge="1" parent="C3laU1NXzG-Y4HvoAmFW-1" source="EDEPv6k74kUYAO_By8vL-17" target="EDEPv6k74kUYAO_By8vL-18">
          <mxGeometry relative="1" as="geometry" />
        </mxCell>
        <mxCell id="EDEPv6k74kUYAO_By8vL-17" value="&lt;div&gt;job.QueueingJobExecutor(new Thread)&lt;br&gt;&lt;/div&gt;&lt;div&gt;&amp;nbsp;executeLoop()&lt;br&gt;&lt;/div&gt;" style="rounded=0;whiteSpace=wrap;html=1;" vertex="1" parent="C3laU1NXzG-Y4HvoAmFW-1">
          <mxGeometry x="-125" y="467" width="282" height="52" as="geometry" />
        </mxCell>
        <mxCell id="EDEPv6k74kUYAO_By8vL-24" value="" style="edgeStyle=orthogonalEdgeStyle;rounded=0;orthogonalLoop=1;jettySize=auto;html=1;" edge="1" parent="C3laU1NXzG-Y4HvoAmFW-1" source="EDEPv6k74kUYAO_By8vL-18" target="EDEPv6k74kUYAO_By8vL-23">
          <mxGeometry relative="1" as="geometry" />
        </mxCell>
        <mxCell id="EDEPv6k74kUYAO_By8vL-26" value="Case CREAT_BACKUP" style="edgeStyle=orthogonalEdgeStyle;rounded=0;orthogonalLoop=1;jettySize=auto;html=1;" edge="1" parent="C3laU1NXzG-Y4HvoAmFW-1" source="EDEPv6k74kUYAO_By8vL-18">
          <mxGeometry relative="1" as="geometry">
            <mxPoint x="-268" y="576.5" as="targetPoint" />
          </mxGeometry>
        </mxCell>
        <mxCell id="EDEPv6k74kUYAO_By8vL-18" value="job.JobFactory.createJob()&lt;div&gt;&lt;br&gt;&lt;/div&gt;" style="rounded=0;whiteSpace=wrap;html=1;" vertex="1" parent="C3laU1NXzG-Y4HvoAmFW-1">
          <mxGeometry x="-125" y="548" width="282" height="57" as="geometry" />
        </mxCell>
        <mxCell id="EDEPv6k74kUYAO_By8vL-22" value="" style="edgeStyle=orthogonalEdgeStyle;rounded=0;orthogonalLoop=1;jettySize=auto;html=1;" edge="1" parent="C3laU1NXzG-Y4HvoAmFW-1" source="EDEPv6k74kUYAO_By8vL-19" target="EDEPv6k74kUYAO_By8vL-21">
          <mxGeometry relative="1" as="geometry" />
        </mxCell>
        <mxCell id="EDEPv6k74kUYAO_By8vL-19" value="&lt;div&gt;action.ActionFactory&lt;/div&gt;&lt;div&gt;createAction()&lt;br&gt;&lt;/div&gt;" style="rounded=0;whiteSpace=wrap;html=1;" vertex="1" parent="C3laU1NXzG-Y4HvoAmFW-1">
          <mxGeometry x="544" y="343" width="281.5" height="47" as="geometry" />
        </mxCell>
        <mxCell id="EDEPv6k74kUYAO_By8vL-57" value="" style="edgeStyle=orthogonalEdgeStyle;rounded=0;orthogonalLoop=1;jettySize=auto;html=1;" edge="1" parent="C3laU1NXzG-Y4HvoAmFW-1" source="EDEPv6k74kUYAO_By8vL-21" target="EDEPv6k74kUYAO_By8vL-56">
          <mxGeometry relative="1" as="geometry" />
        </mxCell>
        <mxCell id="EDEPv6k74kUYAO_By8vL-21" value="&lt;div&gt;action.Action&lt;/div&gt;&lt;div&gt;new Action()&lt;br&gt;&lt;/div&gt;" style="rounded=0;whiteSpace=wrap;html=1;" vertex="1" parent="C3laU1NXzG-Y4HvoAmFW-1">
          <mxGeometry x="544" y="417" width="281.5" height="47" as="geometry" />
        </mxCell>
        <mxCell id="EDEPv6k74kUYAO_By8vL-36" value="triggerJob()" style="edgeStyle=orthogonalEdgeStyle;rounded=0;orthogonalLoop=1;jettySize=auto;html=1;" edge="1" parent="C3laU1NXzG-Y4HvoAmFW-1" source="EDEPv6k74kUYAO_By8vL-23" target="EDEPv6k74kUYAO_By8vL-35">
          <mxGeometry relative="1" as="geometry" />
        </mxCell>
        <mxCell id="EDEPv6k74kUYAO_By8vL-23" value="&lt;div&gt;Job.runJob()&lt;/div&gt;&lt;div&gt;Job.triggerJob()&lt;br&gt;&lt;/div&gt;Job.completeJob()" style="rounded=0;whiteSpace=wrap;html=1;" vertex="1" parent="C3laU1NXzG-Y4HvoAmFW-1">
          <mxGeometry x="-125" y="721" width="282" height="53" as="geometry" />
        </mxCell>
        <mxCell id="EDEPv6k74kUYAO_By8vL-29" value="case CREAT_BACKUP" style="edgeStyle=orthogonalEdgeStyle;rounded=0;orthogonalLoop=1;jettySize=auto;html=1;" edge="1" parent="C3laU1NXzG-Y4HvoAmFW-1" source="EDEPv6k74kUYAO_By8vL-27" target="EDEPv6k74kUYAO_By8vL-28">
          <mxGeometry relative="1" as="geometry" />
        </mxCell>
        <mxCell id="EDEPv6k74kUYAO_By8vL-27" value="job.Job.run" style="rounded=0;whiteSpace=wrap;html=1;" vertex="1" parent="C3laU1NXzG-Y4HvoAmFW-1">
          <mxGeometry x="-125" y="605" width="282" height="41" as="geometry" />
        </mxCell>
        <mxCell id="EDEPv6k74kUYAO_By8vL-37" style="edgeStyle=orthogonalEdgeStyle;rounded=0;orthogonalLoop=1;jettySize=auto;html=1;exitX=0.5;exitY=1;exitDx=0;exitDy=0;entryX=0.5;entryY=0;entryDx=0;entryDy=0;" edge="1" parent="C3laU1NXzG-Y4HvoAmFW-1" source="EDEPv6k74kUYAO_By8vL-28" target="EDEPv6k74kUYAO_By8vL-31">
          <mxGeometry relative="1" as="geometry" />
        </mxCell>
        <mxCell id="EDEPv6k74kUYAO_By8vL-28" value="ActionService.executeHousekeeping()" style="rounded=0;whiteSpace=wrap;html=1;" vertex="1" parent="C3laU1NXzG-Y4HvoAmFW-1">
          <mxGeometry x="-557" y="605" width="282" height="41" as="geometry" />
        </mxCell>
        <mxCell id="EDEPv6k74kUYAO_By8vL-31" value="JobExecutor.executeAndWait(BM, housekeeping)" style="rounded=0;whiteSpace=wrap;html=1;" vertex="1" parent="C3laU1NXzG-Y4HvoAmFW-1">
          <mxGeometry x="-557" y="663" width="282" height="41" as="geometry" />
        </mxCell>
        <mxCell id="EDEPv6k74kUYAO_By8vL-45" value="" style="edgeStyle=orthogonalEdgeStyle;rounded=0;orthogonalLoop=1;jettySize=auto;html=1;" edge="1" parent="C3laU1NXzG-Y4HvoAmFW-1" source="EDEPv6k74kUYAO_By8vL-34" target="EDEPv6k74kUYAO_By8vL-44">
          <mxGeometry relative="1" as="geometry" />
        </mxCell>
        <mxCell id="EDEPv6k74kUYAO_By8vL-34" value="&lt;div&gt;JobFactory&lt;/div&gt;&lt;div&gt;getCreateBackupJob (BM)&lt;br&gt;&lt;/div&gt;" style="rounded=0;whiteSpace=wrap;html=1;" vertex="1" parent="C3laU1NXzG-Y4HvoAmFW-1">
          <mxGeometry x="-557" y="551" width="281" height="37" as="geometry" />
        </mxCell>
        <mxCell id="EDEPv6k74kUYAO_By8vL-39" value="" style="edgeStyle=orthogonalEdgeStyle;rounded=0;orthogonalLoop=1;jettySize=auto;html=1;" edge="1" parent="C3laU1NXzG-Y4HvoAmFW-1" source="EDEPv6k74kUYAO_By8vL-35" target="EDEPv6k74kUYAO_By8vL-38">
          <mxGeometry relative="1" as="geometry" />
        </mxCell>
        <mxCell id="EDEPv6k74kUYAO_By8vL-35" value="&lt;div&gt;CreateBackupJob&lt;/div&gt;&lt;div&gt;triggerJob()&lt;br&gt;&lt;/div&gt;" style="rounded=0;whiteSpace=wrap;html=1;" vertex="1" parent="C3laU1NXzG-Y4HvoAmFW-1">
          <mxGeometry x="-557" y="721" width="282" height="53" as="geometry" />
        </mxCell>
        <mxCell id="EDEPv6k74kUYAO_By8vL-41" value="" style="edgeStyle=orthogonalEdgeStyle;rounded=0;orthogonalLoop=1;jettySize=auto;html=1;" edge="1" parent="C3laU1NXzG-Y4HvoAmFW-1" source="EDEPv6k74kUYAO_By8vL-38" target="EDEPv6k74kUYAO_By8vL-40">
          <mxGeometry relative="1" as="geometry" />
        </mxCell>
        <mxCell id="EDEPv6k74kUYAO_By8vL-65" value="" style="edgeStyle=orthogonalEdgeStyle;rounded=0;orthogonalLoop=1;jettySize=auto;html=1;" edge="1" parent="C3laU1NXzG-Y4HvoAmFW-1" source="EDEPv6k74kUYAO_By8vL-38" target="EDEPv6k74kUYAO_By8vL-64">
          <mxGeometry relative="1" as="geometry" />
        </mxCell>
        <mxCell id="EDEPv6k74kUYAO_By8vL-38" value="&lt;div&gt;BackupRepository&lt;/div&gt;&lt;div&gt;createBackup(BM, action, agents)&lt;br&gt;&lt;/div&gt;" style="rounded=0;whiteSpace=wrap;html=1;" vertex="1" parent="C3laU1NXzG-Y4HvoAmFW-1">
          <mxGeometry x="-557" y="817" width="282" height="53" as="geometry" />
        </mxCell>
        <mxCell id="EDEPv6k74kUYAO_By8vL-43" value="" style="edgeStyle=orthogonalEdgeStyle;rounded=0;orthogonalLoop=1;jettySize=auto;html=1;" edge="1" parent="C3laU1NXzG-Y4HvoAmFW-1" source="EDEPv6k74kUYAO_By8vL-40" target="EDEPv6k74kUYAO_By8vL-42">
          <mxGeometry relative="1" as="geometry" />
        </mxCell>
        <mxCell id="EDEPv6k74kUYAO_By8vL-63" value="" style="edgeStyle=orthogonalEdgeStyle;rounded=0;orthogonalLoop=1;jettySize=auto;html=1;" edge="1" parent="C3laU1NXzG-Y4HvoAmFW-1" source="EDEPv6k74kUYAO_By8vL-40" target="EDEPv6k74kUYAO_By8vL-62">
          <mxGeometry relative="1" as="geometry" />
        </mxCell>
        <mxCell id="EDEPv6k74kUYAO_By8vL-40" value="&lt;div&gt;StorageMetadataFileService&lt;br&gt;&lt;/div&gt;&lt;div&gt;createStorageMetadataFile()&lt;br&gt;&lt;/div&gt;" style="rounded=0;whiteSpace=wrap;html=1;" vertex="1" parent="C3laU1NXzG-Y4HvoAmFW-1">
          <mxGeometry x="-557" y="950" width="282" height="53" as="geometry" />
        </mxCell>
        <mxCell id="EDEPv6k74kUYAO_By8vL-47" value="" style="edgeStyle=orthogonalEdgeStyle;rounded=0;orthogonalLoop=1;jettySize=auto;html=1;" edge="1" parent="C3laU1NXzG-Y4HvoAmFW-1" source="EDEPv6k74kUYAO_By8vL-42" target="EDEPv6k74kUYAO_By8vL-46">
          <mxGeometry relative="1" as="geometry" />
        </mxCell>
        <mxCell id="EDEPv6k74kUYAO_By8vL-42" value="&lt;div&gt;JobStage&lt;/div&gt;&lt;div&gt;trigger()&lt;br&gt;&lt;/div&gt;" style="rounded=0;whiteSpace=wrap;html=1;" vertex="1" parent="C3laU1NXzG-Y4HvoAmFW-1">
          <mxGeometry x="-557" y="1083" width="282" height="53" as="geometry" />
        </mxCell>
        <mxCell id="EDEPv6k74kUYAO_By8vL-44" value="&lt;div&gt;Job.setJobStage(&lt;/div&gt;&lt;div&gt;new ExecutingBackupJobStageV2())&lt;/div&gt;" style="rounded=0;whiteSpace=wrap;html=1;" vertex="1" parent="C3laU1NXzG-Y4HvoAmFW-1">
          <mxGeometry x="-918" y="551" width="281" height="37" as="geometry" />
        </mxCell>
        <mxCell id="EDEPv6k74kUYAO_By8vL-49" value="" style="edgeStyle=orthogonalEdgeStyle;rounded=0;orthogonalLoop=1;jettySize=auto;html=1;" edge="1" parent="C3laU1NXzG-Y4HvoAmFW-1" source="EDEPv6k74kUYAO_By8vL-46" target="EDEPv6k74kUYAO_By8vL-48">
          <mxGeometry relative="1" as="geometry" />
        </mxCell>
        <mxCell id="EDEPv6k74kUYAO_By8vL-46" value="&lt;div&gt;ExecutingBackupJobStageV2&lt;/div&gt;&lt;div&gt;.handleTrigger()&lt;br&gt;&lt;/div&gt;" style="rounded=0;whiteSpace=wrap;html=1;" vertex="1" parent="C3laU1NXzG-Y4HvoAmFW-1">
          <mxGeometry x="-557" y="1216" width="282" height="53" as="geometry" />
        </mxCell>
        <mxCell id="EDEPv6k74kUYAO_By8vL-51" value="" style="edgeStyle=orthogonalEdgeStyle;rounded=0;orthogonalLoop=1;jettySize=auto;html=1;" edge="1" parent="C3laU1NXzG-Y4HvoAmFW-1" source="EDEPv6k74kUYAO_By8vL-48" target="EDEPv6k74kUYAO_By8vL-50">
          <mxGeometry relative="1" as="geometry" />
        </mxCell>
        <mxCell id="EDEPv6k74kUYAO_By8vL-48" value="&lt;div&gt;Agent&lt;/div&gt;&lt;div&gt;prepareForBackup()&lt;br&gt;&lt;/div&gt;" style="rounded=0;whiteSpace=wrap;html=1;" vertex="1" parent="C3laU1NXzG-Y4HvoAmFW-1">
          <mxGeometry x="-557" y="1349" width="282" height="53" as="geometry" />
        </mxCell>
        <mxCell id="EDEPv6k74kUYAO_By8vL-53" value="" style="edgeStyle=orthogonalEdgeStyle;rounded=0;orthogonalLoop=1;jettySize=auto;html=1;" edge="1" parent="C3laU1NXzG-Y4HvoAmFW-1" source="EDEPv6k74kUYAO_By8vL-50" target="EDEPv6k74kUYAO_By8vL-52">
          <mxGeometry relative="1" as="geometry" />
        </mxCell>
        <mxCell id="EDEPv6k74kUYAO_By8vL-50" value="&lt;div&gt;RecognizedState.&lt;br&gt;&lt;/div&gt;&lt;div&gt;prepareForBackup()&lt;br&gt;&lt;/div&gt;" style="rounded=0;whiteSpace=wrap;html=1;" vertex="1" parent="C3laU1NXzG-Y4HvoAmFW-1">
          <mxGeometry x="-557" y="1482" width="282" height="53" as="geometry" />
        </mxCell>
        <mxCell id="EDEPv6k74kUYAO_By8vL-55" value="" style="edgeStyle=orthogonalEdgeStyle;rounded=0;orthogonalLoop=1;jettySize=auto;html=1;" edge="1" parent="C3laU1NXzG-Y4HvoAmFW-1" source="EDEPv6k74kUYAO_By8vL-52" target="EDEPv6k74kUYAO_By8vL-54">
          <mxGeometry relative="1" as="geometry" />
        </mxCell>
        <mxCell id="EDEPv6k74kUYAO_By8vL-52" value="&lt;div&gt;AgentInputStream&lt;/div&gt;&lt;div&gt;prepareForBackup()&lt;br&gt;&lt;/div&gt;" style="rounded=0;whiteSpace=wrap;html=1;" vertex="1" parent="C3laU1NXzG-Y4HvoAmFW-1">
          <mxGeometry x="-557" y="1615" width="282" height="53" as="geometry" />
        </mxCell>
        <mxCell id="EDEPv6k74kUYAO_By8vL-54" value="&lt;div&gt;StreamObserver&lt;/div&gt;&lt;div&gt;onNext()&lt;br&gt;&lt;/div&gt;" style="rounded=0;whiteSpace=wrap;html=1;" vertex="1" parent="C3laU1NXzG-Y4HvoAmFW-1">
          <mxGeometry x="-557" y="1748" width="282" height="53" as="geometry" />
        </mxCell>
        <mxCell id="EDEPv6k74kUYAO_By8vL-59" value="" style="edgeStyle=orthogonalEdgeStyle;rounded=0;orthogonalLoop=1;jettySize=auto;html=1;" edge="1" parent="C3laU1NXzG-Y4HvoAmFW-1" source="EDEPv6k74kUYAO_By8vL-56" target="EDEPv6k74kUYAO_By8vL-58">
          <mxGeometry relative="1" as="geometry" />
        </mxCell>
        <mxCell id="EDEPv6k74kUYAO_By8vL-56" value="&lt;div&gt;ActionRepository.&lt;/div&gt;&lt;div&gt;persist()&lt;br&gt;&lt;/div&gt;" style="rounded=0;whiteSpace=wrap;html=1;" vertex="1" parent="C3laU1NXzG-Y4HvoAmFW-1">
          <mxGeometry x="544" y="498" width="281.5" height="47" as="geometry" />
        </mxCell>
        <mxCell id="EDEPv6k74kUYAO_By8vL-61" value="" style="edgeStyle=orthogonalEdgeStyle;rounded=0;orthogonalLoop=1;jettySize=auto;html=1;" edge="1" parent="C3laU1NXzG-Y4HvoAmFW-1" source="EDEPv6k74kUYAO_By8vL-58" target="EDEPv6k74kUYAO_By8vL-60">
          <mxGeometry relative="1" as="geometry" />
        </mxCell>
        <mxCell id="EDEPv6k74kUYAO_By8vL-58" value="&lt;div&gt;action.ActionFileService&lt;/div&gt;&lt;div&gt;writeToFile(action)&lt;br&gt;&lt;/div&gt;" style="rounded=0;whiteSpace=wrap;html=1;" vertex="1" parent="C3laU1NXzG-Y4HvoAmFW-1">
          <mxGeometry x="544" y="582.5" width="281.5" height="47" as="geometry" />
        </mxCell>
        <mxCell id="EDEPv6k74kUYAO_By8vL-60" value="/backup-managers/{bmID}/actions/{actionID}.json" style="rounded=0;whiteSpace=wrap;html=1;" vertex="1" parent="C3laU1NXzG-Y4HvoAmFW-1">
          <mxGeometry x="544" y="663.5" width="281.5" height="47" as="geometry" />
        </mxCell>
        <mxCell id="EDEPv6k74kUYAO_By8vL-62" value="&lt;div&gt;create brIntStorage.json&lt;br&gt;&lt;/div&gt;" style="rounded=0;whiteSpace=wrap;html=1;" vertex="1" parent="C3laU1NXzG-Y4HvoAmFW-1">
          <mxGeometry x="-195" y="950" width="282" height="53" as="geometry" />
        </mxCell>
        <mxCell id="EDEPv6k74kUYAO_By8vL-64" value="&lt;div&gt;backupFileService&lt;/div&gt;&lt;div&gt;writeToFile(backup)&lt;br&gt;&lt;/div&gt;" style="rounded=0;whiteSpace=wrap;html=1;" vertex="1" parent="C3laU1NXzG-Y4HvoAmFW-1">
          <mxGeometry x="-193" y="817" width="282" height="53" as="geometry" />
        </mxCell>
        <mxCell id="EDEPv6k74kUYAO_By8vL-67" value="CMMediatorService.addBackup()" style="rounded=0;whiteSpace=wrap;html=1;" vertex="1" parent="C3laU1NXzG-Y4HvoAmFW-1">
          <mxGeometry x="-193" y="870" width="282" height="53" as="geometry" />
        </mxCell>
      </root>
    </mxGraphModel>
  </diagram>
</mxfile>
